<svg width="1274" height="775" viewBox="0 0 1274 775" fill="none" xmlns="http://www.w3.org/2000/svg">
    <g filter="url(#w2pjf0xana)">
        <circle cx="740" cy="464" r="12" fill="#fff"/>
        <path fill-rule="evenodd" clip-rule="evenodd" d="M730 444.53 712 437l7.54 18h.98l2.64-6.84 6.84-2.65v-.98zm22.5 17.97c0-7.455-6.045-13.5-13.5-13.5s-13.5 6.045-13.5 13.5c0 6.255 4.26 11.505 10.035 13.035L739 479l3.465-3.465c5.775-1.53 10.035-6.78 10.035-13.035zm-18-6c0-2.49 2.01-4.5 4.5-4.5s4.5 2.01 4.5 4.5-2.01 4.5-4.5 4.5-4.5-2.01-4.5-4.5zm13.5 12.12a10.8 10.8 0 0 1-18 0c.045-2.985 6.015-4.62 9-4.62 3 0 8.955 1.635 9 4.62z" fill="#4275ED"/>
    </g>
    <g opacity=".7" filter="url(#le1yjd4okb)">
        <path fill-rule="evenodd" clip-rule="evenodd" d="M639.571 355.096 625 349l6.104 14.571h.793l2.137-5.537 5.537-2.145v-.793zm18.214 14.547c0-6.035-4.893-10.929-10.928-10.929-6.035 0-10.929 4.894-10.929 10.929 0 5.063 3.449 9.313 8.124 10.552l2.805 2.805 2.805-2.805c4.675-1.239 8.123-5.489 8.123-10.552zm-14.571-4.857a3.638 3.638 0 0 1 3.643-3.643 3.638 3.638 0 0 1 3.643 3.643 3.64 3.64 0 0 1-3.643 3.643 3.638 3.638 0 0 1-3.643-3.643zm10.928 9.811a8.742 8.742 0 0 1-14.571 0c.036-2.416 4.869-3.74 7.286-3.74 2.428 0 7.249 1.324 7.285 3.74z" fill="#9114A5"/>
    </g>
    <g filter="url(#n7nagi7yzc)">
        <circle cx="479" cy="150" r="19" fill="#fff"/>
        <path fill-rule="evenodd" clip-rule="evenodd" d="M465 122.713 437 111l11.729 28h1.524l4.107-10.64 10.64-4.122v-1.525zm35 27.953c0-11.597-9.403-21-21-21s-21 9.403-21 21c0 9.73 6.627 17.897 15.61 20.277l5.39 5.39 5.39-5.39c8.983-2.38 15.61-10.547 15.61-20.277zm-28-9.333c0-3.874 3.127-7 7-7s7 3.126 7 7c0 3.873-3.127 7-7 7s-7-3.127-7-7zm21 18.853c-3.01 4.527-8.167 7.513-14 7.513s-10.99-2.986-14-7.513c.07-4.643 9.357-7.187 14-7.187 4.667 0 13.93 2.544 14 7.187z" fill="#BD00FF" fill-opacity=".5"/>
    </g>
    <g filter="url(#8jqatil60d)">
        <circle cx="566" cy="746" r="19" fill="#fff"/>
        <path fill-rule="evenodd" clip-rule="evenodd" d="M552.142 717.191 523 705l12.207 29.143h1.587l4.274-11.074 11.074-4.291v-1.587zm36.429 29.095c0-12.07-9.787-21.857-21.857-21.857-12.07 0-21.857 9.787-21.857 21.857 0 10.127 6.897 18.627 16.247 21.104l5.61 5.61 5.61-5.61c9.35-2.477 16.247-10.977 16.247-21.104zm-29.143-9.714a7.276 7.276 0 0 1 7.286-7.286 7.276 7.276 0 0 1 7.286 7.286 7.276 7.276 0 0 1-7.286 7.285 7.276 7.276 0 0 1-7.286-7.285zm21.857 19.623c-3.132 4.711-8.5 7.82-14.571 7.82s-11.439-3.109-14.572-7.82c.073-4.833 9.739-7.481 14.572-7.481 4.857 0 14.499 2.648 14.571 7.481z" fill="#0ED08A"/>
    </g>
    <defs>
        <filter id="w2pjf0xana" x="704" y="429" width="56.5" height="58" filterUnits="userSpaceOnUse" color-interpolation-filters="sRGB">
            <feFlood flood-opacity="0" result="BackgroundImageFix"/>
            <feBlend in="SourceGraphic" in2="BackgroundImageFix" result="shape"/>
            <feGaussianBlur stdDeviation="4" result="effect1_foregroundBlur_861_19084"/>
        </filter>
        <filter id="le1yjd4okb" x="613" y="337" width="56.785" height="58" filterUnits="userSpaceOnUse" color-interpolation-filters="sRGB">
            <feFlood flood-opacity="0" result="BackgroundImageFix"/>
            <feBlend in="SourceGraphic" in2="BackgroundImageFix" result="shape"/>
            <feGaussianBlur stdDeviation="6" result="effect1_foregroundBlur_861_19084"/>
        </filter>
        <filter id="n7nagi7yzc" x="431" y="105" width="75" height="77.333" filterUnits="userSpaceOnUse" color-interpolation-filters="sRGB">
            <feFlood flood-opacity="0" result="BackgroundImageFix"/>
            <feBlend in="SourceGraphic" in2="BackgroundImageFix" result="shape"/>
            <feGaussianBlur stdDeviation="3" result="effect1_foregroundBlur_861_19084"/>
        </filter>
        <filter id="8jqatil60d" x="521" y="703" width="69.572" height="72.001" filterUnits="userSpaceOnUse" color-interpolation-filters="sRGB">
            <feFlood flood-opacity="0" result="BackgroundImageFix"/>
            <feBlend in="SourceGraphic" in2="BackgroundImageFix" result="shape"/>
            <feGaussianBlur stdDeviation="1" result="effect1_foregroundBlur_861_19084"/>
        </filter>
    </defs>
</svg>
