<svg width="1274" height="773" viewBox="0 0 1274 773" fill="none" xmlns="http://www.w3.org/2000/svg">
    <circle cx="932" cy="340" r="22" fill="#fff"/>
    <path fill-rule="evenodd" clip-rule="evenodd" d="M914 303.06 878 288l15.08 36h1.96l5.28-13.68 13.68-5.3v-1.96zM959 339c0-14.91-12.09-27-27-27s-27 12.09-27 27c0 12.51 8.52 23.01 20.07 26.07L932 372l6.93-6.93C950.48 362.01 959 351.51 959 339zm-36-12c0-4.98 4.02-9 9-9s9 4.02 9 9-4.02 9-9 9-9-4.02-9-9zm27 24.24c-3.87 5.82-10.5 9.66-18 9.66s-14.13-3.84-18-9.66c.09-5.97 12.03-9.24 18-9.24 6 0 17.91 3.27 18 9.24z" fill="#FB7B05"/>
    <circle cx="185" cy="38" r="19" fill="#fff"/>
    <path fill-rule="evenodd" clip-rule="evenodd" d="M171 11.713 143 0l11.729 28h1.524l4.107-10.64L171 13.238v-1.525zm35 27.953c0-11.597-9.403-21-21-21s-21 9.403-21 21c0 9.73 6.627 17.897 15.61 20.277l5.39 5.39 5.39-5.39c8.983-2.38 15.61-10.547 15.61-20.277zm-28-9.333c0-3.874 3.127-7 7-7s7 3.126 7 7c0 3.873-3.127 7-7 7a6.99 6.99 0 0 1-7-7zm21 18.853c-3.01 4.527-8.167 7.513-14 7.513s-10.99-2.986-14-7.513c.07-4.643 9.357-7.187 14-7.187 4.667 0 13.93 2.544 14 7.187z" fill="#11BADF"/>
    <circle cx="71" cy="514" r="30" fill="#fff"/>
    <path fill-rule="evenodd" clip-rule="evenodd" d="M47.111 465.708 0 446l19.734 47.111H22.3l6.91-17.902 17.902-6.936v-2.565zM106 512.741c0-19.512-15.822-35.334-35.334-35.334-19.511 0-35.333 15.822-35.333 35.334 0 16.371 11.15 30.111 26.265 34.116l9.069 9.069 9.068-9.069C94.85 542.852 106 529.112 106 512.741zm-47.111-15.704c0-6.517 5.26-11.778 11.777-11.778a11.762 11.762 0 0 1 11.778 11.778c0 6.517-5.26 11.778-11.778 11.778a11.762 11.762 0 0 1-11.777-11.778zm35.333 31.721c-5.064 7.617-13.74 12.642-23.555 12.642s-18.492-5.025-23.556-12.642c.118-7.812 15.743-12.092 23.556-12.092 7.851 0 23.437 4.28 23.555 12.092z" fill="#EA4335"/>
    <circle cx="1243.5" cy="415.5" r="27.5" fill="#fff"/>
    <path fill-rule="evenodd" clip-rule="evenodd" d="M1223.11 373.853 1182.82 357l16.88 40.286h2.19l5.91-15.309 15.31-5.931v-2.193zm50.35 40.218c0-16.685-13.53-30.214-30.21-30.214-16.69 0-30.22 13.529-30.22 30.214 0 14 9.54 25.75 22.46 29.174l7.76 7.755 7.75-7.755c12.93-3.424 22.46-15.174 22.46-29.174zm-40.28-13.428c0-5.573 4.5-10.072 10.07-10.072s10.07 4.499 10.07 10.072c0 5.573-4.5 10.071-10.07 10.071s-10.07-4.498-10.07-10.071zm30.21 27.125c-4.33 6.513-11.75 10.81-20.14 10.81s-15.81-4.297-20.14-10.81c.1-6.68 13.46-10.34 20.14-10.34 6.71 0 20.04 3.66 20.14 10.34z" fill="#2C56C4"/>
    <circle cx="1020.5" cy="606.5" r="45.5" fill="#fff"/>
    <path fill-rule="evenodd" clip-rule="evenodd" d="M987.063 537.659 919 509.186l28.511 68.063h3.706l9.982-25.864 25.864-10.021v-3.705zm85.077 67.95c0-28.19-22.86-51.048-51.05-51.048-28.185 0-51.043 22.858-51.043 51.048 0 23.652 16.109 43.503 37.943 49.289l13.1 13.102 13.11-13.102c21.83-5.786 37.94-25.637 37.94-49.289zm-68.06-22.688c0-9.416 7.6-17.016 17.01-17.016 9.42 0 17.02 7.6 17.02 17.016 0 9.415-7.6 17.016-17.02 17.016-9.41 0-17.01-7.601-17.01-17.016zm51.05 45.829c-7.32 11.004-19.86 18.264-34.04 18.264-14.17 0-26.71-7.26-34.027-18.264.17-11.287 22.747-17.47 34.027-17.47 11.35 0 33.87 6.183 34.04 17.47z" fill="#6A93F7"/>
</svg>
